:version 1.10
:name ASF
:units
  mass 1
  length 1
  angle deg
:documentation
  ASF file generated by Kaydara
:root
  axis xyz
  order  tx ty tz rx ry rz
  position 0 0 0
  orientation 0 0 0
:bonedata
  begin
    id 1
    name SpineDummy
    direction 0.999998 -0.00179978 1.38929e-006
    length 3.60008
    axis 0 0 0 xyz
  end
  begin
    id 2
    name Spine
    direction 0.964365 0.262802 0.0305839
    length 8.13928
    axis 1.33928 -1.75354 15.2838 xyz
    dof rx ry rz
  end
  begin
    id 3
    name Spine1
    direction 0.811168 0.572065 0.12144
    length 7.14954
    axis 2.2224 -6.9761 35.2157 xyz
    dof rx ry rz
  end
  begin
    id 4
    name Neck
    direction 0 0 0
    length 0
    axis 2.2224 -6.9761 35.2157 xyz
    dof rx ry rz
  end
  begin
    id 5
    name HeadDummy
    direction 0.810939 0.572387 0.121455
    length 3.55534
    axis 2.2224 -6.9761 35.2157 xyz
  end
  begin
    id 6
    name Head
    direction 0.998226 -0.000232542 0.0595419
    length 7.35666
    axis -3.03688 -3.41352 -0.0133467 xyz
    dof rx ry rz
  end
  begin
    id 7
    name R_ClavicleDummy
    direction 0.531669 -0.194489 -0.824319
    length 2.49392
    axis 2.2224 -6.9761 35.2157 xyz
  end
  begin
    id 8
    name R_Clavicle
    direction -0.155119 0.0480802 -0.986725
    length 4.485
    axis -54.2764 80.6538 162.779 xyz
    dof rx ry rz
  end
  begin
    id 9
    name R_UpperArm
    direction -0.955567 0.200068 -0.216484
    length 10.1122
    axis -72.9943 12.5026 168.175 xyz
    dof rx ry rz
  end
  begin
    id 10
    name R_Forearm
    direction -0.61433 0.385743 0.688332
    length 9.39148
    axis -117.015 -43.4982 147.875 xyz
    dof rx ry rz
  end
  begin
    id 11
    name R_Hand
    direction -0.699429 0.0170333 0.714499
    length 3.66324
    axis -45.0303 -36.7097 175.478 xyz
    dof rx ry rz
  end
  begin
    id 12
    name L_ClavicleDummy
    direction 0.40287 -0.36502 0.839319
    length 2.49392
    axis 2.2224 -6.9761 35.2157 xyz
  end
  begin
    id 13
    name L_Clavicle
    direction -0.231271 -0.0726419 0.970174
    length 4.485
    axis 18.4357 -75.9711 -162.563 xyz
    dof rx ry rz
  end
  begin
    id 14
    name L_UpperArm
    direction -0.917494 0.144359 0.370629
    length 10.1122
    axis 56.0417 -21.7544 171.058 xyz
    dof rx ry rz
  end
  begin
    id 15
    name L_Forearm
    direction -0.496786 0.615074 -0.612281
    length 9.39148
    axis 89.8094 37.7546 128.927 xyz
    dof rx ry rz
  end
  begin
    id 16
    name L_Hand
    direction -0.409932 0.64962 -0.640274
    length 3.66324
    axis -0.424369 32.133 128.52 xyz
    dof rx ry rz
  end
  begin
    id 17
    name L_ThighDummy
    direction -1.84081e-006 1.87549e-006 1
    length 3.13049
    axis 0 0 0 xyz
  end
  begin
    id 18
    name L_Thigh
    direction -0.947739 0.307978 0.083308
    length 17.9961
    axis 173.219 -4.77873 161.998 xyz
    dof rx ry rz
  end
  begin
    id 19
    name L_Calf
    direction -0.728814 -0.684427 0.0197583
    length 13.3367
    axis 167.331 -1.13214 -136.799 xyz
    dof rx ry rz
  end
  begin
    id 20
    name L_Foot
    direction -0.9028 0.418719 0.0981191
    length 5.8674
    axis 163.436 11.5135 -155.37 xyz
    dof rx ry rz
  end
  begin
    id 21
    name L_Toe0
    direction -0.35341 0.886259 0.299411
    length 4.75286
    axis 169.316 -17.4222 111.74 xyz
    dof rx ry rz
  end
  begin
    id 22
    name R_ThighDummy
    direction 9.32778e-007 -8.82053e-007 -1
    length 3.13049
    axis 0 0 0 xyz
  end
  begin
    id 23
    name R_Thigh
    direction -0.925064 0.37528 -0.0585023
    length 17.9961
    axis -178.698 3.35385 157.919 xyz
    dof rx ry rz
  end
  begin
    id 24
    name R_Calf
    direction -0.68969 -0.718776 -0.0876886
    length 13.3367
    axis -160.504 5.03065 -133.817 xyz
    dof rx ry rz
  end
  begin
    id 25
    name R_Foot
    direction -0.857405 0.418858 -0.299022
    length 5.8674
    axis -161.328 4.38911 -154.413 xyz
    dof rx ry rz
  end
  begin
    id 26
    name R_Toe0
    direction -0.100745 0.952789 -0.286433
    length 4.75286
    axis 171.683 16.6445 96.0359 xyz
    dof rx ry rz
  end
:hierarchy
  begin
    root SpineDummy L_ThighDummy R_ThighDummy
    SpineDummy Spine
    Spine Spine1
    Spine1 Neck
    Neck HeadDummy R_ClavicleDummy L_ClavicleDummy
    HeadDummy Head
    R_ClavicleDummy R_Clavicle
    R_Clavicle R_UpperArm
    R_UpperArm R_Forearm
    R_Forearm R_Hand
    L_ClavicleDummy L_Clavicle
    L_Clavicle L_UpperArm
    L_UpperArm L_Forearm
    L_Forearm L_Hand
    L_ThighDummy L_Thigh
    L_Thigh L_Calf
    L_Calf L_Foot
    L_Foot L_Toe0
    R_ThighDummy R_Thigh
    R_Thigh R_Calf
    R_Calf R_Foot
    R_Foot R_Toe0
  end

:SAMPLES-PER-SECOND 30
:FULLY-SPECIFIED
:DEGREES
95
root  -10.5685 28.977 27.3056 -96.1838 3.5254 87.2084
Spine  -2.95635 -7.81513 -6.08808
Spine1  -2.00868 11.0595 1.91004
Neck  3.97569e-016 0 -2.38542e-015
Head  12.6666 7.81685 -15.4789
R_Clavicle  0.270079 -9.85282 0.791431
R_UpperArm  14.5805 5.80741 9.05101
R_Forearm  9.13058 -8.22473 6.89318
R_Hand  0.288211 11.4071 -11.2095
L_Clavicle  -0.311696 12.6553 -1.44963
L_UpperArm  15.7233 -4.24553 -12.5048
L_Forearm  1.18661 13.3256 15.8668
L_Hand  -0.526603 3.51984 -6.46833
L_Thigh  -6.50946 -11.4957 -1.38855
L_Calf  -15.1561 0.434634 -3.23153
L_Foot  8.61083 2.13246 33.0615
L_Toe0  0.507309 0.0344547 -6.13732
R_Thigh  -4.19173 -8.85809 -0.924967
R_Calf  -13.6584 -0.160193 -0.481081
R_Foot  4.4808 13.8824 20.411
R_Toe0  -4.6979 0.427057 -8.57527
96
root  -10.4724 29.4552 27.9351 -94.4911 3.1819 86.0973
Spine  -2.05421 -5.34689 -5.8057
Spine1  -1.34477 6.0144 2.69813
Neck  3.97569e-016 0 -2.38542e-015
Head  10.2771 6.29471 -15.7679
R_Clavicle  0.265955 -11.0003 0.617465
R_UpperArm  13.0376 5.01192 9.3787
R_Forearm  14.6024 -17.1547 14.8843
R_Hand  -0.157797 11.5347 -14.0422
L_Clavicle  -0.378664 14.3366 -1.71468
L_UpperArm  9.78666 -1.7444 -8.17918
L_Forearm  3.05159 18.6699 23.0911
L_Hand  -0.224415 3.58043 -2.66607
L_Thigh  -7.30174 -12.0847 -1.21183
L_Calf  -14.9477 0.0913628 -0.6476
L_Foot  9.04655 4.5951 29.9483
L_Toe0  0.452834 0.035247 -6.15219
R_Thigh  -4.24289 -9.02629 3.62473
R_Calf  -10.9167 -1.7054 -5.28171
R_Foot  3.42788 11.623 6.85731
R_Toe0  0.404189 -0.0246265 4.58972
97
root  -10.2005 30.7223 28.2702 -90.3734 4.18212 84.5709
Spine  -2.04619 -5.98973 -6.04325
Spine1  -1.45749 4.9822 1.23562
Neck  3.97569e-016 0 -2.38542e-015
Head  8.0387 3.99057 -13.2952
R_Clavicle  0.27321 -12.9896 0.37797
R_UpperArm  12.9027 3.69226 12.4967
R_Forearm  15.5435 -26.8598 21.0743
R_Hand  -0.172208 10.5384 -13.7708
L_Clavicle  -0.459855 16.1672 -1.29581
L_UpperArm  1.75825 2.50539 -1.72397
L_Forearm  -0.28709 24.882 31.304
L_Hand  -0.159831 3.24022 -1.92843
L_Thigh  -7.54587 -12.2086 -2.45628
L_Calf  -8.07464 -0.938101 7.05058
L_Foot  9.06583 8.9585 23.0836
L_Toe0  0.641315 0.03136 -5.90005
R_Thigh  -5.86938 -8.25971 5.52906
R_Calf  -6.82983 -1.518 -4.75646
R_Foot  2.48965 7.80531 -5.70175
R_Toe0  4.8761 -1.85229 6.36478
98
root  -9.82587 32.4228 28.4656 -82.3541 7.15858 83.8023
Spine  -3.30597 -7.91762 -7.07714
Spine1  -2.78292 7.24008 -1.61362
Neck  3.97569e-016 0 -2.38542e-015
Head  4.78771 1.51065 -10.4234
R_Clavicle  0.332015 -16.1742 0.516462
R_UpperArm  27.4236 2.22878 18.836
R_Forearm  1.52841 -37.7202 21.4591
R_Hand  -0.105197 8.46943 -12.2712
L_Clavicle  -0.513566 17.7882 -0.543587
L_UpperArm  -11.7082 5.27242 5.33683
L_Forearm  -1.68511 33.2894 38.4737
L_Hand  -0.177109 2.69789 -2.32578
L_Thigh  -6.77806 -11.8473 -2.60974
L_Calf  2.78311 -2.24653 16.9289
L_Foot  6.03223 11.1363 10.5986
L_Toe0  2.53516 -0.0542846 -4.34641
R_Thigh  -6.63612 -6.94801 4.46663
R_Calf  -6.23772 0.334075 0.95736
R_Foot  1.84711 4.45854 -7.90332
R_Toe0  2.49978 -0.830579 -6.78757
99
root  -9.45653 33.9989 28.619 -72.106 10.4507 84.8595
Spine  -5.07024 -7.69742 -8.37437
Spine1  -4.85894 8.95377 -4.15088
Neck  3.97569e-016 0 -2.38542e-015
Head  0.295768 -1.02949 -8.63951
R_Clavicle  0.393912 -19.6318 0.969251
R_UpperArm  33.6962 0.516433 27.2865
R_Forearm  -5.38676 -40.3075 23.5727
R_Hand  -0.218591 6.49342 -11.9517
L_Clavicle  -0.535203 18.5742 -0.306863
L_UpperArm  -26.0716 4.93047 12.3868
L_Forearm  0.50252 40.1994 45.1594
L_Hand  -0.129344 1.6348 -1.96905
L_Thigh  -8.27303 -10.6888 -1.17127
L_Calf  7.85418 -3.18814 24.2273
L_Foot  1.49445 9.19274 -2.64586
L_Toe0  3.69396 -0.177251 -3.30584
R_Thigh  -5.64026 -4.77582 2.80074
R_Calf  -6.8202 2.9241 9.03332
R_Foot  1.57961 3.66096 -6.49783
R_Toe0  -2.11777 -0.216814 -18.2694
100
root  -9.16351 35.1297 28.7282 -62.5681 11.9534 86.2991
Spine  -6.15624 -6.52226 -9.44619
Spine1  -6.16662 9.79501 -4.82138
Neck  3.97569e-016 0 -2.38542e-015
Head  -4.60155 -3.98745 -7.96369
R_Clavicle  0.41756 -21.5124 1.42709
R_UpperArm  37.3547 -1.41667 35.6599
R_Forearm  -3.35664 -39.087 24.4552
R_Hand  -0.33109 5.7425 -12.4492
L_Clavicle  -0.532423 18.2511 -0.656675
L_UpperArm  -27.1732 2.37446 18.5488
L_Forearm  -6.1345 41.0082 49.8839
L_Hand  -0.0850306 0.83219 -1.45517
L_Thigh  -13.3475 -9.31978 -0.090308
L_Calf  3.14551 -3.36349 25.5314
L_Foot  -0.256013 8.69049 -8.69851
L_Toe0  0.238886 0.0518231 -6.37237
R_Thigh  -4.21801 -2.28013 1.35739
R_Calf  -6.161 5.3917 16.9402
R_Foot  1.98974 4.66104 -9.15057
R_Toe0  -1.79257 -0.272911 -17.3276
101
root  -8.92854 35.7038 28.7927 -54.7252 11.9397 86.6754
Spine  -6.4334 -7.2027 -9.5806
Spine1  -6.41305 12.021 -4.32919
Neck  3.97569e-016 0 -2.38542e-015
Head  -9.23258 -7.08989 -7.65671
R_Clavicle  0.419848 -21.1554 1.88315
R_UpperArm  41.4497 -3.38723 42.5845
R_Forearm  2.2032 -38.2353 25.5865
R_Hand  -0.40899 5.81954 -13.1995
L_Clavicle  -0.499224 17.2634 -0.84803
L_UpperArm  -28.2787 -1.10634 23.2305
L_Forearm  -9.74551 40.7069 51.5009
L_Hand  -0.0867883 1.01327 -1.44679
L_Thigh  -16.393 -8.47699 -0.125705
L_Calf  -5.13107 -2.76871 20.6724
L_Foot  0.505016 10.4756 -7.10211
L_Toe0  0.505156 0.0344444 -6.1361
R_Thigh  -3.40855 0.0247805 -0.0110175
R_Calf  -5.51064 7.20401 23.005
R_Foot  2.49743 6.02928 -13.0888
R_Toe0  -1.78853 -0.272775 -17.3235
102
root  -8.71123 35.7817 28.8233 -47.5831 11.3267 86.8529
Spine  -6.57003 -8.35875 -9.00452
Spine1  -6.50753 14.8076 -4.13
Neck  3.97569e-016 0 -2.38542e-015
Head  -13.7346 -9.32394 -6.93263
R_Clavicle  0.428297 -19.912 2.41295
R_UpperArm  45.1384 -5.14938 48.4513
R_Forearm  7.02549 -38.616 27.8692
R_Hand  -0.544108 6.16631 -14.6011
L_Clavicle  -0.464505 16.3759 -0.327534
L_UpperArm  -29.532 -5.84823 26.9609
L_Forearm  -10.2178 39.9888 51.4353
L_Hand  -0.112487 1.62754 -1.69594
L_Thigh  -14.1242 -7.87079 -0.471267
L_Calf  -7.12188 -1.58033 11.4397
L_Foot  1.12934 9.66956 -4.34905
L_Toe0  0.505156 0.0344077 -6.1361
R_Thigh  -2.24628 2.5812 -0.466685
R_Calf  -7.88456 8.40807 27.2426
R_Foot  3.00973 8.71034 -14.8131
R_Toe0  -1.78853 -0.272784 -17.3235
103
root  -8.51921 35.4639 28.8392 -40.5337 10.1684 87.63
Spine  -6.94395 -7.57427 -8.73119
Spine1  -6.96749 15.975 -4.21062
Neck  3.97569e-016 0 -2.38542e-015
Head  -18.2955 -10.2709 -5.40931
R_Clavicle  0.442532 -19.0688 2.82814
R_UpperArm  47.745 -6.78921 54.209
R_Forearm  10.7303 -39.1807 30.814
R_Hand  -0.727271 7.13535 -16.5489
L_Clavicle  -0.44166 15.5529 0.621953
L_UpperArm  -30.4706 -12.0404 30.4733
L_Forearm  -9.8091 39.2525 49.9809
L_Hand  -0.112604 2.15271 -1.55559
L_Thigh  -9.58899 -6.87976 -0.676074
L_Calf  -3.17362 -0.080877 0.265479
L_Foot  1.07814 7.91829 -3.21187
L_Toe0  0.505156 0.0343335 -6.1361
R_Thigh  0.838001 5.50216 0.439817
R_Calf  -12.7737 9.35673 30.7558
R_Foot  3.50176 11.7144 -17.4051
R_Toe0  -1.63483 -0.292893 -17.4629
104
root  -8.42397 34.7057 28.8501 -34.0187 8.88938 87.7061
Spine  -7.525 -6.41527 -8.72952
Spine1  -7.50916 15.9009 -4.00005
Neck  3.97569e-016 0 -2.38542e-015
Head  -22.4895 -10.606 -3.32547
R_Clavicle  0.452087 -18.2528 2.94904
R_UpperArm  49.7841 -8.68593 60.1435
R_Forearm  14.6882 -39.3171 33.3907
R_Hand  -0.828383 8.54656 -17.6862
L_Clavicle  -0.418963 14.0184 1.33969
L_UpperArm  -31.8939 -17.9863 34.0172
L_Forearm  -9.72138 37.7142 47.1683
L_Hand  -0.0916387 2.71774 -1.14176
L_Thigh  -6.07683 -5.71566 -1.59358
L_Calf  -1.51178 1.46206 -11.0992
L_Foot  1.33657 7.42255 -1.82542
L_Toe0  0.505156 0.0342354 -6.1361
R_Thigh  5.07008 7.64136 1.5972
R_Calf  -15.6794 9.86291 32.7217
R_Foot  3.32143 9.19332 -21.4581
R_Toe0  -3.1588 -0.0975218 -16.1366
105
root  -8.47466 33.4986 28.8589 -28.4969 7.89045 86.3034
Spine  -8.12556 -6.76601 -8.27349
Spine1  -7.79425 16.2571 -3.36094
Neck  3.97569e-016 0 -2.38542e-015
Head  -25.8051 -11.0656 -1.36518
R_Clavicle  0.464558 -16.6513 2.96668
R_UpperArm  50.9959 -10.5757 65.8566
R_Forearm  19.2672 -39.1192 35.2275
R_Hand  -0.71598 9.30687 -17.0573
L_Clavicle  -0.39104 11.7197 1.61391
L_UpperArm  -33.9913 -22.426 37.8412
L_Forearm  -10.4976 34.6105 43.6327
L_Hand  -0.122013 3.27535 -1.44289
L_Thigh  -4.43111 -4.00471 -4.26412
L_Calf  -5.42121 2.87448 -21.8499
L_Foot  1.58756 6.80816 -0.324498
L_Toe0  0.505156 0.034127 -6.1361
R_Thigh  8.2588 8.9414 1.87222
R_Calf  -12.8462 9.37511 30.9077
R_Foot  1.68722 -3.65258 -20.3881
R_Toe0  -8.65833 0.660169 -10.7072
106
root  -8.61462 31.9743 28.8903 -24.2452 6.92104 84.179
Spine  -8.52898 -7.65183 -7.74854
Spine1  -7.66336 16.9354 -1.9689
Neck  3.97569e-016 0 -2.38542e-015
Head  -28.2125 -11.7649 -0.225816
R_Clavicle  0.48989 -14.4924 3.10098
R_UpperArm  51.3386 -11.5212 70.8786
R_Forearm  22.5869 -38.7643 35.992
R_Hand  -0.551227 9.21784 -15.8593
L_Clavicle  -0.382974 9.62428 2.01146
L_UpperArm  -36.588 -26.2358 41.818
L_Forearm  -11.6649 30.5873 40.0716
L_Hand  -0.235661 3.52484 -2.81124
L_Thigh  -3.47055 -1.03561 -8.54237
L_Calf  -9.56112 4.00224 -31.0134
L_Foot  1.25291 5.73907 -0.637625
L_Toe0  0.505156 0.034022 -6.1361
R_Thigh  10.352 10.0513 2.20241
R_Calf  -5.05064 7.54991 24.3613
R_Foot  -2.89489 -19.9679 -9.47628
R_Toe0  -4.8462 0.352068 -10.9919
107
root  -8.70985 30.57 28.9487 -21.4174 5.64578 82.4447
Spine  -8.49149 -7.47071 -8.04016
Spine1  -7.07462 17.0596 0.267071
Neck  3.97569e-016 0 -2.38542e-015
Head  -29.8607 -12.6761 0.0327989
R_Clavicle  0.509669 -12.6979 3.15136
R_UpperArm  50.717 -11.3091 74.9243
R_Forearm  23.2372 -37.8336 34.5485
R_Hand  -0.548317 8.87722 -15.7231
L_Clavicle  -0.454592 8.19648 3.26241
L_UpperArm  -40.8318 -29.5988 44.7266
L_Forearm  -10.8239 26.921 35.7345
L_Hand  -0.345393 3.69506 -4.11044
L_Thigh  -2.57354 3.01189 -13.5582
L_Calf  -9.55947 4.64528 -36.6389
L_Foot  0.732247 5.28321 -2.2975
L_Toe0  0.505156 0.0339341 -6.1361
R_Thigh  11.7087 10.8097 3.90931
R_Calf  1.16719 4.89476 15.5524
R_Foot  -7.394 -22.8302 2.79067
R_Toe0  2.19959 -0.434328 -14.1779
108
root  -8.57934 29.7974 29.0423 -19.6622 4.52818 81.7044
Spine  -8.07324 -6.62546 -8.63804
Spine1  -6.37248 17.0156 1.96703
Neck  3.97569e-016 0 -2.38542e-015
Head  -30.6768 -13.8306 0.256239
R_Clavicle  0.486504 -11.9659 2.8369
R_UpperArm  48.823 -10.7018 77.4899
R_Forearm  22.0543 -35.5128 30.1886
R_Hand  -0.615014 8.47687 -16.0851
L_Clavicle  -0.602151 6.84576 5.07028
L_UpperArm  -44.7044 -30.03 45.4876
L_Forearm  -8.42966 22.9288 29.2673
L_Hand  -0.367484 4.42966 -4.01685
L_Thigh  -1.84881 6.50109 -17.7404
L_Calf  -7.19182 4.6967 -37.1117
L_Foot  0.448324 5.18911 -3.37445
L_Toe0  0.505156 0.033877 -6.1361
R_Thigh  11.9483 11.7621 5.46334
R_Calf  3.40019 3.45663 10.9318
R_Foot  -8.51647 -21.7694 7.1154
R_Toe0  1.11783 -0.306198 -15.7948
